<?xml version="1.0" encoding="UTF-8"?>
<svg width="110px" height="110px" viewBox="0 0 110 110" version="1.1" xmlns="http://www.w3.org/2000/svg" xmlns:xlink="http://www.w3.org/1999/xlink">
    <!-- Generator: Sketch 50.2 (55047) - http://www.bohemiancoding.com/sketch -->
    <title>Group 11</title>
    <desc>Created with Sketch.</desc>
    <defs>
        <linearGradient x1="3.061617e-15%" y1="50%" x2="98.8101881%" y2="50%" id="linearGradient-1">
            <stop stop-color="#1F4F85" offset="0%"></stop>
            <stop stop-color="#371E6F" offset="100%"></stop>
        </linearGradient>
    </defs>
    <g id="Landing-Page" stroke="none" stroke-width="1" fill="none" fill-rule="evenodd">
        <g id="Landing-Page-Gradient_Bg" transform="translate(-660.000000, -928.000000)">
            <g id="Group-4" transform="translate(293.000000, 905.000000)">
                <g id="Group-9" transform="translate(344.000000, 0.000000)">
                    <g id="Group-11">
                        <circle id="Oval-Copy" fill="url(#linearGradient-1)" transform="translate(78.000000, 78.000000) rotate(45.000000) translate(-78.000000, -78.000000) " cx="78" cy="78" r="55"></circle>
                        <path d="M66.6545455,62.4000045 C64.3048249,62.4000045 62.4,64.3048291 62.4,66.6545494 L62.4,83.8236879 C62.4,85.7634206 63.9724643,87.3358847 65.9121974,87.3358847 C65.9679047,87.3358847 66.0236034,87.3372781 66.079241,87.3400636 C67.9219841,87.4323192 69.3410346,89.0009454 69.2487789,90.8436883 L69.110786,93.6 L74.3376182,88.5350655 C75.1313106,87.7659571 76.1931414,87.3358847 77.2983453,87.3358847 L89.345428,87.3358802 C91.6951468,87.3358802 93.5999709,85.4310583 93.5999735,83.0813399 L93.6,66.6545494 C93.6,64.3048246 91.6951751,62.4 89.3454545,62.4 L66.6545455,62.4000045 Z M66.3636364,60.0000046 L89.6363636,60 C93.150903,60 96,62.8487169 96,66.3627905 L95.9999728,83.2085387 C95.999969,86.7226064 93.1508731,89.5713191 89.6363372,89.5713191 L77.2803541,89.5713238 C76.666352,89.5713238 76.076446,89.8102211 75.6355057,90.2374465 L70.2746522,95.4315588 C68.9711754,96.6944929 66.7946026,95.7080358 66.8853592,93.8954779 L67.0268903,91.0688683 C67.0662812,90.2821682 66.4603822,89.6124934 65.6735772,89.5731078 C62.5082144,89.5713238 60,87.0634441 60,83.9698176 L60,66.3627919 C60,62.8487215 62.849097,60.0000046 66.3636364,60.0000046 Z" id="Rectangle-6" fill="#FFFFFF" fill-rule="nonzero"></path>
                    </g>
                </g>
            </g>
        </g>
    </g>
</svg>