<?xml version="1.0" encoding="UTF-8"?>
<svg width="111px" height="111px" viewBox="0 0 111 111" version="1.1" xmlns="http://www.w3.org/2000/svg" xmlns:xlink="http://www.w3.org/1999/xlink">
    <!-- Generator: Sketch 50.2 (55047) - http://www.bohemiancoding.com/sketch -->
    <title>Group 10</title>
    <desc>Created with Sketch.</desc>
    <defs>
        <linearGradient x1="100%" y1="50%" x2="3.061617e-15%" y2="50%" id="linearGradient-1">
            <stop stop-color="#1F4F85" offset="0%"></stop>
            <stop stop-color="#008489" offset="100%"></stop>
        </linearGradient>
    </defs>
    <g id="Landing-Page" stroke="none" stroke-width="1" fill="none" fill-rule="evenodd">
        <g id="Landing-Page-Gradient_Bg" transform="translate(-356.000000, -927.000000)">
            <g id="Group-4" transform="translate(293.000000, 905.000000)">
                <g id="Group-8" transform="translate(41.000000, 0.000000)">
                    <g id="Group-10">
                        <circle id="Oval" fill="url(#linearGradient-1)" transform="translate(77.781746, 77.781746) rotate(45.000000) translate(-77.781746, -77.781746) " cx="77.7817459" cy="77.7817459" r="55"></circle>
                        <path d="M61.75,81.5 L61.75,91.35 C61.75,92.6754834 62.8245166,93.75 64.15,93.75 L67,93.75 L67,81.5 L61.75,81.5 Z M61.0888889,79.1666667 L68.1666667,79.1666667 L68.1666667,95.4952854 C65.4868119,95.5174582 63.7649312,95.4614221 63.0010246,95.3271773 C62.3664174,95.2156549 61.4956436,94.8313052 60.8591645,94.1299173 C60.2226855,93.4285294 60,91.9996518 60,91.4837349 L60,80.2927783 C60,79.670844 60.4875122,79.1666667 61.0888889,79.1666667 Z M69.3333333,62.8333333 L69.3333333,93.1666667 L92.6666667,93.1666667 L92.6666667,62.8333333 L69.3333333,62.8333333 Z M68.12,60.5 L93.88,60.5 C94.4985589,60.5 95,61.005485 95,61.6290323 L95,94.3709677 C95,94.994515 94.4985589,95.5 93.88,95.5 L68.12,95.5 C67.5014411,95.5 67,94.994515 67,94.3709677 L67,61.6290323 C67,61.005485 67.5014411,60.5 68.12,60.5 Z M73.1515152,67.5 C72.9757882,67.5 72.8333333,67.6305836 72.8333333,67.7916667 L72.8333333,74.2083333 C72.8333333,74.3694164 72.9757882,74.5 73.1515152,74.5 L79.5151515,74.5 C79.6908785,74.5 79.8333333,74.3694164 79.8333333,74.2083333 L79.8333333,67.7916667 C79.8333333,67.6305836 79.6908785,67.5 79.5151515,67.5 L73.1515152,67.5 Z M83.6574074,72.1666667 C83.4784262,72.1666667 83.3333333,72.3407782 83.3333333,72.5555556 L83.3333333,74.1111111 C83.3333333,74.3258885 83.4784262,74.5 83.6574074,74.5 L88.8425926,74.5 C89.0215738,74.5 89.1666667,74.3258885 89.1666667,74.1111111 L89.1666667,72.5555556 C89.1666667,72.3407782 89.0215738,72.1666667 88.8425926,72.1666667 L83.6574074,72.1666667 Z M83.6574074,67.5 L88.8425926,67.5 C89.0215738,67.5 89.1666667,67.6741115 89.1666667,67.8888889 L89.1666667,69.4444444 C89.1666667,69.6592218 89.0215738,69.8333333 88.8425926,69.8333333 L83.6574074,69.8333333 C83.4784262,69.8333333 83.3333333,69.6592218 83.3333333,69.4444444 L83.3333333,67.8888889 C83.3333333,67.6741115 83.4784262,67.5 83.6574074,67.5 Z M73.1358025,78 L88.8641975,78 C89.0312466,78 89.1666667,78.1741115 89.1666667,78.3888889 L89.1666667,79.9444444 C89.1666667,80.1592218 89.0312466,80.3333333 88.8641975,80.3333333 L73.1358025,80.3333333 C72.9687534,80.3333333 72.8333333,80.1592218 72.8333333,79.9444444 L72.8333333,78.3888889 C72.8333333,78.1741115 72.9687534,78 73.1358025,78 Z M73.1358025,82.6666667 L88.8641975,82.6666667 C89.0312466,82.6666667 89.1666667,82.8407782 89.1666667,83.0555556 L89.1666667,84.6111111 C89.1666667,84.8258885 89.0312466,85 88.8641975,85 L73.1358025,85 C72.9687534,85 72.8333333,84.8258885 72.8333333,84.6111111 L72.8333333,83.0555556 C72.8333333,82.8407782 72.9687534,82.6666667 73.1358025,82.6666667 Z M73.1358025,87.3333333 L88.8641975,87.3333333 C89.0312466,87.3333333 89.1666667,87.5074448 89.1666667,87.7222222 L89.1666667,89.2777778 C89.1666667,89.4925552 89.0312466,89.6666667 88.8641975,89.6666667 L73.1358025,89.6666667 C72.9687534,89.6666667 72.8333333,89.4925552 72.8333333,89.2777778 L72.8333333,87.7222222 C72.8333333,87.5074448 72.9687534,87.3333333 73.1358025,87.3333333 Z" id="Combined-Shape" fill="#FFFFFF" fill-rule="nonzero"></path>
                    </g>
                </g>
            </g>
        </g>
    </g>
</svg>