<?xml version="1.0" encoding="UTF-8"?>
<svg width="110px" height="110px" viewBox="0 0 110 110" version="1.1" xmlns="http://www.w3.org/2000/svg" xmlns:xlink="http://www.w3.org/1999/xlink">
    <!-- Generator: Sketch 50.2 (55047) - http://www.bohemiancoding.com/sketch -->
    <title>Group 12</title>
    <desc>Created with Sketch.</desc>
    <defs>
        <linearGradient x1="3.061617e-15%" y1="50%" x2="100%" y2="50%" id="linearGradient-1">
            <stop stop-color="#371E6F" offset="0%"></stop>
            <stop stop-color="#5E1E6F" offset="100%"></stop>
        </linearGradient>
    </defs>
    <g id="Landing-Page" stroke="none" stroke-width="1" fill="none" fill-rule="evenodd">
        <g id="Landing-Page-Gradient_Bg" transform="translate(-974.000000, -928.000000)">
            <g id="Group-4" transform="translate(293.000000, 905.000000)">
                <g id="Group-7" transform="translate(658.000000, 0.000000)">
                    <g id="Group-12">
                        <circle id="Oval-Copy-2" fill="url(#linearGradient-1)" transform="translate(78.000000, 78.000000) rotate(45.000000) translate(-78.000000, -78.000000) " cx="78" cy="78" r="55"></circle>
                        <path d="M82.4631944,69.3 L72.536203,69.3 C66.9726647,72.6320891 63,80.9706504 63,87.2749059 C63,95.3342012 69.4918493,95.4 77.5001507,95.4 C85.5081507,95.4 92,95.3342012 92,87.2749059 C92,80.9706504 88.0267327,72.6320891 82.4631944,69.3 Z M83.6112972,67.3830302 C89.6584887,71.0047867 94.2344828,79.9174158 94.2344828,87.2749059 C94.2344828,91.957363 92.2807357,94.9915727 88.5653196,96.441316 C85.9890961,97.4465501 83.5210757,97.6344828 77.5001507,97.6344828 C71.4790414,97.6344828 69.0109829,97.4465518 66.4347282,96.44132 C62.7192756,94.9915832 60.7655172,91.9573754 60.7655172,87.2749059 C60.7655172,79.9171998 65.3410292,71.0047145 71.3881002,67.3830302 C71.7350201,67.1752545 72.1318217,67.0655172 72.536203,67.0655172 L82.4631944,67.0655172 C82.8675757,67.0655172 83.2643773,67.1752545 83.6112972,67.3830302 Z M73.405497,79.7952381 L73.0051456,80.867507 L77.590989,80.867507 C77.4818022,81.2736695 77.2270331,81.5985994 76.8448795,81.8422969 C76.280748,82.1997199 75.4254518,82.3784314 74.278991,82.3784314 L73.1507279,82.3784314 L73.1507279,83.6456583 C73.5510793,83.6456583 73.9514307,83.7593838 74.3153865,83.9868347 C74.6429468,84.1817927 74.9523092,84.4417367 75.2434739,84.7991597 L78.5008785,88.6333333 L81.3943273,88.6333333 L77.4636044,84.2142857 C77.063253,83.7593838 76.7902861,83.4669468 76.6447038,83.3694678 C77.6091867,83.1745098 78.373494,82.8170868 78.9558233,82.2971989 C79.3561747,81.9072829 79.6291416,81.419888 79.7383283,80.867507 L81.6308986,80.867507 L82.03125,79.7952381 L79.7747239,79.7952381 C79.7019327,79.1291317 79.4653614,78.5605042 79.0832078,78.1056022 L81.6127008,78.1056022 L82.0130522,77.0333333 L73.3691014,77.0333333 L72.96875,78.1056022 L74.9159137,78.1056022 C75.8076054,78.1056022 76.4809237,78.2680672 76.9540663,78.6254902 C77.3180221,78.9016807 77.5363956,79.2915966 77.6273845,79.7952381 L73.405497,79.7952381 Z M85.3714286,62.4116412 C85.3714286,60.2244764 83.9458519,60.6296032 82.1870236,60.6296032 L72.8129764,60.6296032 C71.0541481,60.6296032 69.6285714,60.2244764 69.6285714,62.4116412 L72.406266,67.1246287 L82.5934354,67.1246287 L85.3714286,62.4116412 Z M72.406266,69.3591114 C71.6151171,69.3591114 70.8829473,68.9407591 70.4812443,68.2591791 L67.7035498,63.5461917 C67.5009432,63.2024238 67.3940887,62.8106723 67.3940887,62.4116412 C67.3940887,60.7463602 68.0042372,59.4445294 69.3540869,58.780889 C70.1996374,58.3651824 70.726903,58.3327964 72.1949409,58.38155 C72.4940474,58.3914834 72.6453843,58.3951204 72.8129764,58.3951204 L82.1870236,58.3951204 C82.3546157,58.3951204 82.5059526,58.3914834 82.8050591,58.38155 C84.273097,58.3327964 84.8003626,58.3651824 85.6459131,58.780889 C86.9957628,59.4445294 87.6059113,60.7463602 87.6059113,62.4116412 C87.6059113,62.8106818 87.4990517,63.2024423 87.296436,63.5462159 L84.5184428,68.2595747 C84.0407442,69.0700752 83.2470303,69.4054037 82.4802713,69.3591114 L72.406266,69.3591114 Z" id="Combined-Shape" fill="#FFFFFF" fill-rule="nonzero"></path>
                    </g>
                </g>
            </g>
        </g>
    </g>
</svg>