<?xml version="1.0" encoding="UTF-8"?>
<svg width="214px" height="48px" viewBox="0 0 214 48" version="1.1" xmlns="http://www.w3.org/2000/svg" xmlns:xlink="http://www.w3.org/1999/xlink">
    <!-- Generator: Sketch 50.2 (55047) - http://www.bohemiancoding.com/sketch -->
    <title>Group</title>
    <desc>Created with Sketch.</desc>
    <defs></defs>
    <g id="gmail" stroke="none" stroke-width="1" fill="none" fill-rule="evenodd">
        <g id="logo_gmail_white" transform="translate(-53.000000, -42.000000)" fill="#FFFFFF">
            <g id="Group" transform="translate(53.000000, 42.000000)">
                <path d="M33.6,19.2 L33.6,21.6 L33.6,24 L33.6,26.4 L31.2,28.8 L28.8,31.2 L28.8,28.8 L28.8,26.4 L28.8,24 L28.8,21.6 L28.8,19.2 L26.4,19.2 L24,19.2 L21.6,19.2 L19.2,19.2 L16.8,19.2 L19.2,16.8 L21.6,14.4 L24,14.4 L26.4,14.4 L28.8,14.4 L31.2,14.4 L33.6,14.4 L33.6,16.8 L33.6,19.2 Z M24,31.2 L21.6,33.6 L19.2,33.6 L16.8,33.6 L14.4,33.6 L14.4,31.2 L14.4,28.8 L14.4,26.4 L16.8,24 L19.2,24 L21.6,24 L24,24 L24,26.4 L24,28.8 L24,31.2 Z M28.8,48 L24,48 L19.2,48 L14.4,48 L9.6,48 L4.8,48 L0,48 L0,43.2 L0,38.4 L0,33.6 L0,28.8 L0,24 L0,19.2 L0,14.4 L4.8,9.6 L9.6,4.8 L14.4,0 L19.2,0 L24,0 L28.8,0 L33.6,0 L38.4,0 L43.2,0 L48,0 L48,4.8 L48,9.6 L48,14.4 L48,19.2 L48,24 L48,28.8 L48,33.6 L43.2,38.4 L38.4,43.2 L33.6,48 L28.8,48 Z M28.8,38.4 L33.6,33.6 L38.4,28.8 L38.4,24 L38.4,19.2 L38.4,14.4 L38.4,9.6 L33.6,9.6 L28.8,9.6 L24,9.6 L19.2,9.6 L14.4,14.4 L9.6,19.2 L9.6,24 L9.6,28.8 L9.6,33.6 L9.6,38.4 L14.4,38.4 L19.2,38.4 L24,38.4 L28.8,38.4 Z" id="Combined-Shape"></path>
                <path d="M93.999544,25.5396226 C96.4119719,26.3044063 98.3016788,27.582381 99.6687213,29.3735849 C101.035764,31.1647888 101.719275,33.3685404 101.719275,35.9849057 C101.719275,39.6880688 100.281891,42.5358391 97.4070814,44.5283019 C94.5322714,46.5207647 90.3407408,47.5169811 84.8323637,47.5169811 L63,47.5169811 L63,5.25283019 L83.6261557,5.25283019 C88.7726687,5.25283019 92.7229601,6.23898385 95.4771487,8.21132075 C98.2313373,10.1836577 99.6084109,12.8603605 99.6084109,16.2415094 C99.6084109,18.2943499 99.1158809,20.1257781 98.1308062,21.7358491 C97.1457314,23.34592 95.7686578,24.6138318 93.999544,25.5396226 Z M72.7099739,12.6188679 L72.7099739,22.5811321 L82.4199478,22.5811321 C84.8323757,22.5811321 86.6617728,22.1584948 87.9081939,21.3132075 C89.154615,20.4679203 89.7778162,19.220134 89.7778162,17.5698113 C89.7778162,15.9194886 89.154615,14.6817651 87.9081939,13.8566038 C86.6617728,13.0314424 84.8323757,12.6188679 82.4199478,12.6188679 L72.7099739,12.6188679 Z M84.1086389,40.1509434 C86.6818954,40.1509434 88.6218604,39.7283061 89.9285922,38.8830189 C91.235324,38.0377316 91.8886801,36.7295686 91.8886801,34.9584906 C91.8886801,31.4565863 89.295359,29.7056604 84.1086389,29.7056604 L72.7099739,29.7056604 L72.7099739,40.1509434 L84.1086389,40.1509434 Z M119.536689,14.5509434 C124.56258,14.5509434 128.422407,15.7484157 131.116285,18.1433962 C133.810163,20.5383768 135.157081,24.1509192 135.157081,28.9811321 L135.157081,47.5169811 L126.351763,47.5169811 L126.351763,43.4716981 C124.58265,46.4905811 121.285714,48 116.460858,48 C113.968016,48 111.806915,47.5773627 109.977491,46.7320755 C108.148066,45.8867882 106.750889,44.7195043 105.785918,43.2301887 C104.820947,41.7408731 104.338469,40.0503239 104.338469,38.1584906 C104.338469,35.1396075 105.474303,32.7647885 107.746006,31.0339623 C110.017709,29.303136 113.525729,28.4377358 118.27017,28.4377358 L125.748659,28.4377358 C125.748659,26.3848954 125.125458,24.805037 123.879037,23.6981132 C122.632616,22.5911894 120.763012,22.0377358 118.27017,22.0377358 C116.541264,22.0377358 114.842538,22.3094312 113.173942,22.8528302 C111.505346,23.3962291 110.088066,24.130813 108.922059,25.0566038 L105.544677,18.4754717 C107.31379,17.2276667 109.434685,16.2616386 111.907423,15.5773585 C114.380162,14.8930783 116.923225,14.5509434 119.536689,14.5509434 Z M118.812964,41.6603774 C120.421249,41.6603774 121.848581,41.288054 123.095002,40.5433962 C124.341423,39.7987384 125.225967,38.701894 125.748659,37.2528302 L125.748659,33.9320755 L119.295447,33.9320755 C115.435562,33.9320755 113.505649,35.1999873 113.505649,37.7358491 C113.505649,38.9434023 113.978076,39.8993675 114.922943,40.6037736 C115.867811,41.3081796 117.164471,41.6603774 118.812964,41.6603774 Z M152.552322,48 C149.858445,48 147.224917,47.6679278 144.65166,47.0037736 C142.078404,46.3396193 140.027871,45.5044075 138.5,44.4981132 L141.636141,37.7358491 C143.083597,38.6616398 144.832581,39.4163493 146.883145,40 C148.933709,40.5836507 150.944035,40.8754717 152.914185,40.8754717 C156.894691,40.8754717 158.884914,39.889318 158.884914,37.9169811 C158.884914,36.9911903 158.342126,36.327046 157.256533,35.9245283 C156.170941,35.5220106 154.50237,35.1798756 152.25077,34.8981132 C149.5971,34.4955955 147.405844,34.032707 145.676937,33.509434 C143.948031,32.9861609 142.450337,32.060384 141.183813,30.7320755 C139.917288,29.4037669 139.284035,27.511962 139.284035,25.0566038 C139.284035,23.0037633 139.877081,21.1823979 141.063192,19.5924528 C142.249302,18.0025078 143.978183,16.7647843 146.249886,15.8792453 C148.521589,14.9937063 151.205375,14.5509434 154.301324,14.5509434 C156.593131,14.5509434 158.874851,14.8025132 161.146554,15.3056604 C163.418257,15.8088075 165.297912,16.5031402 166.785576,17.3886792 L163.649435,24.090566 C160.794729,22.4804951 157.678723,21.6754717 154.301324,21.6754717 C152.290967,21.6754717 150.783223,21.9572299 149.778044,22.5207547 C148.772866,23.0842795 148.270284,23.8088006 148.270284,24.6943396 C148.270284,25.700634 148.813072,26.4050294 149.898665,26.8075472 C150.984258,27.2100649 152.713138,27.592451 155.085359,27.954717 C157.73903,28.3974865 159.910182,28.8704377 161.598882,29.3735849 C163.287582,29.8767321 164.75512,30.7924462 166.001541,32.1207547 C167.247962,33.4490632 167.871163,35.3006171 167.871163,37.6754717 C167.871163,39.6880604 167.268065,41.4792374 166.061851,43.0490566 C164.855637,44.6188758 163.096602,45.8364737 160.784692,46.7018868 C158.472782,47.5672999 155.728686,48 152.552322,48 Z M171.636255,15.0339623 L181.044677,15.0339623 L181.044677,47.5169811 L171.636255,47.5169811 L171.636255,15.0339623 Z M176.340466,10.5056604 C174.611559,10.5056604 173.20433,10.0025208 172.118738,8.99622642 C171.033145,7.98993208 170.490357,6.74214581 170.490357,5.25283019 C170.490357,3.76351457 171.033145,2.5157283 172.118738,1.50943396 C173.20433,0.503139623 174.611559,0 176.340466,0 C178.069372,0 179.476601,0.483014038 180.562193,1.4490566 C181.647786,2.41509917 182.190574,3.62263426 182.190574,5.07169811 C182.190574,6.64151728 181.647786,7.93961751 180.562193,8.96603774 C179.476601,9.99245796 178.069372,10.5056604 176.340466,10.5056604 Z M198.681159,48 C195.987281,48 193.353754,47.6679278 190.780497,47.0037736 C188.207241,46.3396193 186.156708,45.5044075 184.628837,44.4981132 L187.764977,37.7358491 C189.212434,38.6616398 190.961418,39.4163493 193.011982,40 C195.062546,40.5836507 197.072872,40.8754717 199.043022,40.8754717 C203.023528,40.8754717 205.013751,39.889318 205.013751,37.9169811 C205.013751,36.9911903 204.470963,36.327046 203.38537,35.9245283 C202.299778,35.5220106 200.631207,35.1798756 198.379607,34.8981132 C195.725936,34.4955955 193.534681,34.032707 191.805774,33.509434 C190.076867,32.9861609 188.579174,32.060384 187.312649,30.7320755 C186.046125,29.4037669 185.412872,27.511962 185.412872,25.0566038 C185.412872,23.0037633 186.005918,21.1823979 187.192029,19.5924528 C188.378139,18.0025078 190.10702,16.7647843 192.378723,15.8792453 C194.650426,14.9937063 197.334212,14.5509434 200.430161,14.5509434 C202.721967,14.5509434 205.003688,14.8025132 207.275391,15.3056604 C209.547094,15.8088075 211.426749,16.5031402 212.914413,17.3886792 L209.778272,24.090566 C206.923566,22.4804951 203.80756,21.6754717 200.430161,21.6754717 C198.419804,21.6754717 196.912059,21.9572299 195.906881,22.5207547 C194.901703,23.0842795 194.399121,23.8088006 194.399121,24.6943396 C194.399121,25.700634 194.941909,26.4050294 196.027502,26.8075472 C197.113094,27.2100649 198.841975,27.592451 201.214196,27.954717 C203.867867,28.3974865 206.039019,28.8704377 207.727719,29.3735849 C209.416418,29.8767321 210.883957,30.7924462 212.130378,32.1207547 C213.376799,33.4490632 214,35.3006171 214,37.6754717 C214,39.6880604 213.396902,41.4792374 212.190688,43.0490566 C210.984474,44.6188758 209.225438,45.8364737 206.913528,46.7018868 C204.601618,47.5672999 201.857523,48 198.681159,48 Z" id="Basis"></path>
            </g>
        </g>
    </g>
</svg>